<?xml version="1.0" encoding="UTF-8" standalone="no"?>
<!-- Creator: CorelDRAW -->

<svg
   xml:space="preserve"
   width="7.11111in"
   height="7.11111in"
   version="1.1"
   style="shape-rendering:geometricPrecision; text-rendering:geometricPrecision; image-rendering:optimizeQuality; fill-rule:evenodd; clip-rule:evenodd"
   viewBox="0 0 7111 7111"
   id="svg43"
   sodipodi:docname="favicon.svg"
   inkscape:version="1.2.2 (b0a8486541, 2022-12-01)"
   xmlns:inkscape="http://www.inkscape.org/namespaces/inkscape"
   xmlns:sodipodi="http://sodipodi.sourceforge.net/DTD/sodipodi-0.dtd"
   xmlns="http://www.w3.org/2000/svg"
   xmlns:svg="http://www.w3.org/2000/svg"><sodipodi:namedview
   id="namedview45"
   pagecolor="#ffffff"
   bordercolor="#000000"
   borderopacity="0.25"
   inkscape:showpageshadow="2"
   inkscape:pageopacity="0.0"
   inkscape:pagecheckerboard="0"
   inkscape:deskcolor="#d1d1d1"
   inkscape:document-units="in"
   showgrid="false"
   inkscape:zoom="0.6269532"
   inkscape:cx="633.22111"
   inkscape:cy="378.81615"
   inkscape:window-width="1902"
   inkscape:window-height="1028"
   inkscape:window-x="9"
   inkscape:window-y="9"
   inkscape:window-maximized="1"
   inkscape:current-layer="g526" />
 <defs
   id="defs4">
  <style
   type="text/css"
   id="style2">
   <![CDATA[
    .fil0 {fill:black}
   ]]>
  </style>
 </defs>
 <g
   id="Layer_x0020_1"
   inkscape:label="Layer 1">
  <metadata
   id="CorelCorpID_0Corel-Layer" />
  
 <g
   id="g526"
   transform="matrix(0.87971492,0,0,0.87971492,427.6736,427.6736)"><g
     id="_644348144"
     style="fill:#cccccc">
   <g
   id="g39"
   style="fill:#cccccc">
    <g
   id="g9"
   style="fill:#cccccc">
     <path
   class="fil0"
   d="m 3443,6263 c -58,0 -104,-46 -104,-104 V 4776 c 0,-57 46,-104 104,-104 58,0 104,47 104,104 v 1383 c -6,58 -52,104 -104,104 z"
   id="path7"
   style="fill:#cccccc" />
    </g>
    <g
   id="g13"
   style="fill:#cccccc">
     <path
   class="fil0"
   d="m 2453,5534 h -717 c -58,0 -104,-46 -104,-104 0,-58 46,-104 104,-104 h 619 v -984 c 0,-57 46,-104 104,-104 58,0 104,47 104,104 v 1088 c -6,58 -52,104 -110,104 z"
   id="path11"
   style="fill:#cccccc" />
    </g>
    <g
   id="g17"
   style="fill:#cccccc">
     <path
   class="fil0"
   d="m 5381,5534 h -717 c -58,0 -105,-46 -105,-104 V 4342 c 0,-57 47,-104 105,-104 57,0 104,47 104,104 v 984 h 619 c 58,0 104,46 104,104 0,58 -52,104 -110,104 z"
   id="path15"
   style="fill:#cccccc" />
    </g>
    <g
   id="g21"
   style="fill:#cccccc">
     <path
   class="fil0"
   d="m 1302,5963 c -295,0 -532,-238 -532,-533 0,-295 237,-532 532,-532 295,0 532,237 532,532 0,295 -237,533 -532,533 z m 0,-857 c -179,0 -330,145 -330,330 0,179 145,330 330,330 185,0 330,-145 330,-330 0,-185 -145,-330 -330,-330 z"
   id="path19"
   style="fill:#cccccc" />
    </g>
    <g
   id="g25"
   style="fill:#cccccc">
     <path
   class="fil0"
   d="m 5809,5963 c -295,0 -532,-238 -532,-533 0,-295 237,-532 532,-532 295,0 533,237 533,532 0,295 -238,533 -533,533 z m 0,-857 c -179,0 -330,145 -330,330 0,179 145,330 330,330 180,0 330,-145 330,-330 0,-185 -145,-330 -330,-330 z"
   id="path23"
   style="fill:#cccccc" />
    </g>
    <g
   id="g29"
   style="fill:#cccccc">
     <path
   class="fil0"
   d="m 3443,7114 c -290,0 -527,-237 -527,-532 0,-290 237,-527 527,-527 295,0 532,237 532,527 -6,295 -243,532 -532,532 z m 0,-851 c -180,0 -324,145 -324,324 0,180 144,330 324,330 179,0 330,-144 330,-330 -6,-179 -151,-324 -330,-324 z"
   id="path27"
   style="fill:#cccccc" />
    </g>
    <g
   id="g33"
   style="fill:#cccccc">
     <path
   class="fil0"
   d="m 6625,3799 c -58,0 -104,-47 -104,-105 v -954 l -602,-35 c -46,0 -81,-35 -92,-75 -58,-249 -157,-480 -290,-689 -23,-40 -17,-87 12,-121 l 405,-452 -602,-601 -451,405 c -35,29 -81,34 -122,11 -214,-133 -445,-231 -688,-289 -47,-12 -75,-46 -75,-93 l -29,-601 h -857 l -34,601 c 0,47 -35,81 -76,93 -237,58 -468,156 -688,289 -41,23 -87,18 -122,-11 l -451,-405 -602,607 405,452 c 29,34 35,81 12,121 -127,203 -226,434 -289,689 -12,46 -47,75 -93,75 l -602,35 v 954 c 0,58 -46,104 -104,104 -58,0 -104,-46 -104,-104 V 2647 c 0,-52 40,-98 98,-98 l 619,-35 c 58,-220 145,-422 255,-607 L 937,1444 c -34,-41 -34,-99 6,-139 l 747,-747 c 40,-40 98,-40 138,-5 l 463,416 c 191,-110 400,-197 608,-254 l 35,-620 c 5,-52 46,-98 98,-98 h 1047 c 52,0 99,41 99,98 l 40,620 c 208,57 417,144 608,254 l 462,-416 c 41,-35 99,-35 139,5 l 741,741 c 40,40 40,98 6,139 l -417,463 c 110,185 197,393 255,607 l 619,35 c 52,6 98,46 98,98 v 1048 c 0,63 -46,110 -104,110 z"
   id="path31"
   style="fill:#cccccc" />
    </g>
    <g
   id="g37"
   style="fill:#cccccc">
     <path
   class="fil0"
   d="m 3558,4881 c -943,0 -1712,-764 -1712,-1713 0,-949 769,-1713 1712,-1713 944,0 1713,770 1713,1713 0,943 -769,1713 -1713,1713 z m 0,-3223 c -833,0 -1510,677 -1510,1510 0,833 677,1510 1510,1510 834,0 1511,-677 1511,-1510 0,-833 -677,-1510 -1511,-1510 z"
   id="path35"
   style="fill:#cccccc" />
    </g>
   </g>
  </g><text
     xml:space="preserve"
     style="font-size:4866.12px;fill:#000000;stroke-width:405.511"
     x="-197.14891"
     y="5186.1616"
     id="text205"><tspan
       sodipodi:role="line"
       id="tspan203"
       style="font-style:normal;font-variant:normal;font-weight:normal;font-stretch:normal;font-family:'Noto Sans Adlam';-inkscape-font-specification:'Noto Sans Adlam';stroke-width:405.511"
       x="-197.14891"
       y="5186.1616">API</tspan></text></g></g>
</svg>
